{"title":"Dirty Lies 2016 English Movies HDRip XviD AAC with Sample ☻rDX☻","uid":13693225,"size":738783293,"categoryP":"video","categoryS":"movies","magnet":"?xt=urn:btih:3980ec91370a28a4bf304d9af20e51c7cc8a1749&amp;dn=Dirty+Lies+2016+English+Movies+HDRip+XviD+AAC+with+Sample+%E2%98%BBrDX%E2%98%BB&amp;tr=udp%3A%2F%2Ftracker.leechers-paradise.org%3A6969&amp;tr=udp%3A%2F%2Fzer0day.ch%3A1337&amp;tr=udp%3A%2F%2Fopen.demonii.com%3A1337&amp;tr=udp%3A%2F%2Ftracker.coppersurfer.tk%3A6969&amp;tr=udp%3A%2F%2Fexodus.desync.com%3A6969","seeders":1,"leechers":0,"uploader":"basicssom","files":2,"time":1456639453,"description":"----------------------------------------------------------------\r\nDirty Lies 2016 English Movies HDRip XviD AAC with Sample ☻rDX☻\r\n\r\nSCREEN SHOTS &amp; POSTER:\r\n  \nhttp://mobileshosting.com/2016/2/dating/index.htm  \nhttp://mobileshosting.com/2016/2/dating/1.html  \nhttp://mobileshosting.com/2016/2/dating/2.html  \nhttp://mobileshosting.com/2016/2/dating/3.html  \nhttp://mobileshosting.com/2016/2/dating/4.html  \nhttp://mobileshosting.com/2016/2/dating/5.html  \nhttp://mobileshosting.com/2016/2/dating/6.html  \nhttp://mobileshosting.com/2016/2/dating/7.html  \nhttp://mobileshosting.com/2016/2/dating/8.html  \nhttp://mobileshosting.com/2016/2/dating/9.html  \nhttp://mobileshosting.com/2016/2/dating/10.html\r\n\r\nFormat                                   : Matroska\r\nFormat version                           : Version 4 / Version 2\r\nFile size                                : 694 MiB\r\nDuration                                 : 1h 19mn\r\nOverall bit rate                         : 1 225 Kbps\r\nMovie name                               : Dirty Lies 2016 English Movies HDRip XviD AAC ☻rDX☻\r\n\r\nVideo\r\nID                                       : 1\r\nFormat                                   : MPEG-4 Visual\r\nFormat profile                           : Advanced   \r\nFormat settings, BVOP                    : Yes\r\nFormat settings, QPel                    : No\r\nFormat settings, GMC                     : No warppoints\r\nFormat settings, Matrix                  : Default (H.263)\r\nCodec ID                                 : V_MS/VFW/FOURCC / XVID\r\nCodec ID/Hint                            : XviD\r\nDuration                                 : 1h 19mn\r\nBit rate                                 : 1 072 Kbps\r\nWidth                                    : 640 pixels\r\nHeight                                   : 344 pixels\r\nDisplay aspect ratio                     : 1.85:1\r\nFrame rate mode                          : Constant\r\nFrame rate                               : 25.000 fps\r\nColor space                              : YUV\r\nChroma subsampling                       : 4:2:0\r\nBit depth                                : 8 bits\r\nScan type                                : Progressive\r\nCompression mode                         : Lossy\r\nBits/(Pixel*Frame)                       : 0.195\r\nStream size                              : 608 MiB (88%)\r\nTitle                                    : ☻rDX☻\r\nWriting library                          : XviD 67\r\nDefault                                  : Yes\r\nForced                                   : No\r\n\r\nAudio\r\nID                                       : 2\r\nFormat                                   : MPEG Audio\r\nFormat version                           : Version 1\r\nFormat profile                           : Layer 3\r\nMode                                     : Joint stereo\r\nMode extension                           : MS Stereo\r\nCodec ID                                 : A_MPEG/L3\r\nCodec ID/Hint                            : MP3\r\nDuration                                 : 1h 19mn\r\nBit rate mode                            : Constant\r\nBit rate                                 : 128 Kbps\r\nChannel(s)                               : 2 channels\r\nSampling rate                            : 48.0 KHz\r\nCompression mode                         : Lossy\r\nStream size                              : 72.6 MiB (10%)\r\nTitle                                    : ☻rDX☻\r\nWriting library                          : LAME3.99r\r\nEncoding settings                        : -m j -V 4 -q 3 -lowpass 17 -b 128\r\nDefault                                  : Yes\r\nForced                                   : No\r\n\r\nIMDB                                      \nhttp://www.imdb.com/title/tt3449322/","torrent":{"xt":"urn:btih:3980ec91370a28a4bf304d9af20e51c7cc8a1749","amp;dn":"Dirty+Lies+2016+English+Movies+HDRip+XviD+AAC+with+Sample+%E2%98%BBrDX%E2%98%BB","amp;tr":["udp%3A%2F%2Ftracker.leechers-paradise.org%3A6969","udp%3A%2F%2Fzer0day.ch%3A1337","udp%3A%2F%2Fopen.demonii.com%3A1337","udp%3A%2F%2Ftracker.coppersurfer.tk%3A6969","udp%3A%2F%2Fexodus.desync.com%3A6969"],"infoHash":"3980ec91370a28a4bf304d9af20e51c7cc8a1749","infoHashBuffer":{"type":"Buffer","data":[57,128,236,145,55,10,40,164,191,48,77,154,242,14,81,199,204,138,23,73]},"announce":[],"urlList":[]}}